<?xml version="1.0" encoding="utf-8"?>
<!-- Svg Vector Icons : http://www.onlinewebfonts.com/icon -->
<!DOCTYPE svg PUBLIC "-//W3C//DTD SVG 1.1//EN" "http://www.w3.org/Graphics/SVG/1.1/DTD/svg11.dtd">
<svg version="1.1" xmlns="http://www.w3.org/2000/svg" xmlns:xlink="http://www.w3.org/1999/xlink" x="0px" y="0px" viewBox="0 0 1000 1000" enable-background="new 0 0 1000 1000" xml:space="preserve">
<metadata> Svg Vector Icons : http://www.onlinewebfonts.com/icon </metadata>
<g><path d="M990,670.7h-46.2c-8.6-86.3-81.3-153.7-169.9-153.7c-12,0-23.7,1.3-35,3.7c12.5-12.8,23.3-27.2,32.3-42.8c2.4,0.2,4.6,0.7,7,0.7c58.9,0,106.7-47.8,106.7-106.7c0-58.9-47.8-106.7-106.7-106.7c-2.4,0-4.6,0.5-7,0.7c-8.1-14.1-17.8-27.1-28.7-38.9c11.5-2.8,23.4-4.5,35.7-4.5c82.5,0,149.4,66.9,149.4,149.4c0,51.5-26.1,96.9-65.7,123.7C931.9,525.6,982.1,591.9,990,670.7z M651.8,555.6c122.6,37.2,211.8,151.1,211.8,285.8h-47.4c0-1.4,0.2-2.8,0.2-4.3c0-141.4-114.6-256.1-256-256.1c-141.4,0-256,114.7-256,256.1c0,1.4,0.2,2.8,0.2,4.3h-38.6c0-125.2,77.1-232.3,186.4-276.7C380.2,530.5,330.1,457.2,330.1,372c0-117.8,95.5-213.4,213.4-213.4c117.9,0,213.4,95.5,213.4,213.4C756.9,450.2,714.6,518.5,651.8,555.6z M543.5,201.2c-94.3,0-170.7,76.4-170.7,170.7s76.4,170.7,170.7,170.7c94.3,0,170.7-76.4,170.7-170.7S637.8,201.2,543.5,201.2z M351.4,510.7V532c0,5.9-4.8,10.7-10.7,10.7H202.1v138.7c0,5.9-4.8,10.7-10.7,10.7H170c-5.9,0-10.7-4.8-10.7-10.7V542.7H20.7c-5.9,0-10.7-4.8-10.7-10.7v-21.3c0-5.9,4.8-10.7,10.7-10.7h138.7V361.3c0-5.9,4.8-10.7,10.7-10.7h21.3c5.9,0,10.7,4.8,10.7,10.7V500h138.7C346.7,500,351.4,504.8,351.4,510.7z"/></g>
</svg>